<svg xmlns="http://www.w3.org/2000/svg" width="296" height="160"><style>line, path, circle,rect,polygon{stroke:black;stroke-width:2;stroke-opacity:1;fill-opacity:1;stroke-linecap:round;stroke-linejoin:miter;}text{font-family:monospace;font-size:14px;}rect.backdrop{stroke:none;fill:white;}.broken{stroke-dasharray:8;}.filled{fill:black;}.bg_filled{fill:white;}.nofill{fill:white;}.end_marked_arrow{marker-end:url(#arrow);}.start_marked_arrow{marker-start:url(#arrow);}.end_marked_diamond{marker-end:url(#diamond);}.start_marked_diamond{marker-start:url(#diamond);}.end_marked_circle{marker-end:url(#circle);}.start_marked_circle{marker-start:url(#circle);}.end_marked_open_circle{marker-end:url(#open_circle);}.start_marked_open_circle{marker-start:url(#open_circle);}.end_marked_big_open_circle{marker-end:url(#big_open_circle);}.start_marked_big_open_circle{marker-start:url(#big_open_circle);}</style><defs><marker id="arrow" viewBox="-2 -2 8 8" refX="4" refY="2" markerWidth="7" markerHeight="7" orient="auto-start-reverse"><polygon points="0,0 0,4 4,2 0,0"/></marker><marker id="diamond" viewBox="-2 -2 8 8" refX="4" refY="2" markerWidth="7" markerHeight="7" orient="auto-start-reverse"><polygon points="0,2 2,0 4,2 2,4 0,2"/></marker><marker id="circle" viewBox="0 0 8 8" refX="4" refY="4" markerWidth="7" markerHeight="7" orient="auto-start-reverse"><circle cx="4" cy="4" r="2" class="filled"/></marker><marker id="open_circle" viewBox="0 0 8 8" refX="4" refY="4" markerWidth="7" markerHeight="7" orient="auto-start-reverse"><circle cx="4" cy="4" r="2" class="bg_filled"/></marker><marker id="big_open_circle" viewBox="0 0 8 8" refX="4" refY="4" markerWidth="7" markerHeight="7" orient="auto-start-reverse"><circle cx="4" cy="4" r="3" class="bg_filled"/></marker></defs><rect class="backdrop" x="0" y="0" width="296" height="160"/><text x="98" y="12">Memory</text><text x="154" y="12">Layout</text><line x1="96" y1="24" x2="200" y2="24" class="solid"/><text x="18" y="76">SP</text><text x="50" y="76">TMP0</text><text x="90" y="76">TMP1</text><text x="138" y="76">FP</text><text x="170" y="76">...</text><text x="218" y="76">x</text><text x="258" y="76">y</text><text x="18" y="108">16</text><text x="58" y="108">0</text><text x="98" y="108">0</text><text x="138" y="108">14</text><text x="170" y="108">...</text><text x="218" y="108">5</text><text x="258" y="108">7</text><text x="18" y="140">#0</text><text x="58" y="140">#1</text><text x="98" y="140">#2</text><text x="138" y="140">#3</text><text x="170" y="140">...</text><text x="210" y="140">#15</text><text x="250" y="140">#16</text><g><line x1="4" y1="88" x2="284" y2="88" class="solid"/><line x1="4" y1="88" x2="4" y2="120" class="solid"/><line x1="44" y1="88" x2="44" y2="120" class="solid"/><line x1="84" y1="88" x2="84" y2="120" class="solid"/><line x1="124" y1="88" x2="124" y2="120" class="solid"/><line x1="164" y1="88" x2="164" y2="120" class="solid"/><line x1="204" y1="88" x2="204" y2="120" class="solid"/><line x1="244" y1="88" x2="244" y2="120" class="solid"/><line x1="284" y1="88" x2="284" y2="120" class="solid"/><line x1="4" y1="120" x2="284" y2="120" class="solid"/></g></svg>