<svg xmlns="http://www.w3.org/2000/svg" width="472" height="96"><style>line, path, circle,rect,polygon{stroke:black;stroke-width:2;stroke-opacity:1;fill-opacity:1;stroke-linecap:round;stroke-linejoin:miter;}text{font-family:monospace;font-size:14px;}rect.backdrop{stroke:none;fill:white;}.broken{stroke-dasharray:8;}.filled{fill:black;}.bg_filled{fill:white;}.nofill{fill:white;}.end_marked_arrow{marker-end:url(#arrow);}.start_marked_arrow{marker-start:url(#arrow);}.end_marked_diamond{marker-end:url(#diamond);}.start_marked_diamond{marker-start:url(#diamond);}.end_marked_circle{marker-end:url(#circle);}.start_marked_circle{marker-start:url(#circle);}.end_marked_open_circle{marker-end:url(#open_circle);}.start_marked_open_circle{marker-start:url(#open_circle);}.end_marked_big_open_circle{marker-end:url(#big_open_circle);}.start_marked_big_open_circle{marker-start:url(#big_open_circle);}</style><defs><marker id="arrow" viewBox="-2 -2 8 8" refX="4" refY="2" markerWidth="7" markerHeight="7" orient="auto-start-reverse"><polygon points="0,0 0,4 4,2 0,0"></polygon></marker><marker id="diamond" viewBox="-2 -2 8 8" refX="4" refY="2" markerWidth="7" markerHeight="7" orient="auto-start-reverse"><polygon points="0,2 2,0 4,2 2,4 0,2"></polygon></marker><marker id="circle" viewBox="0 0 8 8" refX="4" refY="4" markerWidth="7" markerHeight="7" orient="auto-start-reverse"><circle cx="4" cy="4" r="2" class="filled"></circle></marker><marker id="open_circle" viewBox="0 0 8 8" refX="4" refY="4" markerWidth="7" markerHeight="7" orient="auto-start-reverse"><circle cx="4" cy="4" r="2" class="bg_filled"></circle></marker><marker id="big_open_circle" viewBox="0 0 8 8" refX="4" refY="4" markerWidth="7" markerHeight="7" orient="auto-start-reverse"><circle cx="4" cy="4" r="3" class="bg_filled"></circle></marker></defs><rect class="backdrop" x="0" y="0" width="472" height="96"></rect><circle cx="116" cy="56" r="3" class="nofill"></circle><text x="146" y="60" >HIR</text><text x="210" y="60" >MIR</text><text x="274" y="60" >LIR</text><text x="330" y="60" >Dynamic</text><text x="2" y="60" >Harbor</text><text x="58" y="60" >Source</text><text x="394" y="60" >Brainf***</text><g><path d="M 144,40 A 4,4 0,0,0 140,44" class="nofill"></path><line x1="140" y1="44" x2="140" y2="68" class="solid"></line><line x1="144" y1="40" x2="176" y2="40" class="solid"></line><path d="M 176,40 A 4,4 0,0,1 180,44" class="nofill"></path><line x1="180" y1="44" x2="180" y2="68" class="solid"></line><line x1="180" y1="56" x2="192" y2="56" class="solid"></line><polygon points="192,52 200,56 192,60" class="filled"></polygon><path d="M 140,68 A 4,4 0,0,0 144,72" class="nofill"></path><line x1="144" y1="72" x2="176" y2="72" class="solid"></line><path d="M 180,68 A 4,4 0,0,1 176,72" class="nofill"></path></g><g><path d="M 208,40 A 4,4 0,0,0 204,44" class="nofill"></path><line x1="204" y1="44" x2="204" y2="68" class="solid"></line><line x1="208" y1="40" x2="240" y2="40" class="solid"></line><path d="M 240,40 A 4,4 0,0,1 244,44" class="nofill"></path><line x1="244" y1="44" x2="244" y2="68" class="solid"></line><line x1="244" y1="56" x2="256" y2="56" class="solid"></line><polygon points="256,52 264,56 256,60" class="filled"></polygon><path d="M 204,68 A 4,4 0,0,0 208,72" class="nofill"></path><line x1="208" y1="72" x2="240" y2="72" class="solid"></line><path d="M 244,68 A 4,4 0,0,1 240,72" class="nofill"></path></g><g><path d="M 272,40 A 4,4 0,0,0 268,44" class="nofill"></path><line x1="268" y1="44" x2="268" y2="68" class="solid"></line><line x1="272" y1="40" x2="304" y2="40" class="solid"></line><path d="M 304,40 A 4,4 0,0,1 308,44" class="nofill"></path><line x1="308" y1="44" x2="308" y2="68" class="solid"></line><line x1="308" y1="56" x2="320" y2="56" class="solid"></line><polygon points="320,52 328,56 320,60" class="filled"></polygon><path d="M 268,68 A 4,4 0,0,0 272,72" class="nofill"></path><line x1="272" y1="72" x2="304" y2="72" class="solid"></line><path d="M 308,68 A 4,4 0,0,1 304,72" class="nofill"></path></g><g><line x1="120" y1="56" x2="128" y2="56" class="solid"></line><polygon points="128,52 136,56 128,60" class="filled"></polygon></g></svg>